<?xml version="1.0" ?><svg id="Layer_1" style="enable-background:new 0 0 24 24;" version="1.1" viewBox="0 0 24 24" xml:space="preserve" xmlns="http://www.w3.org/2000/svg" xmlns:xlink="http://www.w3.org/1999/xlink"><style type="text/css">
	.st0{fill:#1E232D;}
</style><path class="st0" d="M23.4,1.1C23.2,1,23.1,1,22.9,1l-22,2C0.4,3,0,3.5,0,4v10c0,0.1,0,0.1,0,0.2C0.8,19.4,5.4,23,10.5,23  c0.5,0,1.1,0,1.7-0.1c0.2,0,0.4-0.1,0.5-0.2l11-9.9c0.2-0.2,0.3-0.5,0.3-0.7V2C24,1.6,23.8,1.2,23.4,1.1z M11,21  c-2,0.1-3.9-0.3-5.6-1.5C3.6,18.1,2.4,16,2,14h1v-2H2V8.9c0.6,0.8,1.4,1.6,2.3,2.2c2,1.4,4.3,2.1,6.7,2V21z M11.6,11  c-2.2,0.3-4.3-0.3-6.1-1.6C3.9,8.3,2.7,6.7,2.2,4.9L6,4.5V5h2V4.4l12.1-1.1L11.6,11z M22,11.6l-9,8.1v-7.2l5-4.5V9h2V7h-1l3-2.7  V11.6z M7,19h2v-2H7V19z M16,14h2v-2h-2V14z M10,7v2h2V7H10z"/></svg>