<?xml version="1.0" ?><svg data-name="Layer 1" id="Layer_1" viewBox="0 0 48 48" xmlns="http://www.w3.org/2000/svg"><path d="M44.24,18.15h0c0-.13-.08-.26-.13-.39-.52-1.32-1.25-2.12-2.1-2.31a3.22,3.22,0,0,0-1.89.26,8.52,8.52,0,0,0-1.14.58s-3.34,2-5.49.67a3.08,3.08,0,0,1-1.09-2.29,17.82,17.82,0,0,0-.73-3c-.54-1.58-1.55-2.19-3.47-2.15a5.65,5.65,0,0,0-3.76,1.54,14.84,14.84,0,0,0-2.79,3.32c-.34.57-.64,1.2-.93,1.81-.2.43-.41.87-.63,1.28-1,2-2,3.17-2.72,3.61a4.45,4.45,0,0,1-2.09.41,18.2,18.2,0,0,1-4.19-.59l-1-.25a15,15,0,0,0-3.42-.59h0a3.9,3.9,0,0,0-3.17,1.69,4,4,0,0,0-.82,2,1.34,1.34,0,0,0,0,.2h0a33.77,33.77,0,0,0-.5,4,2.21,2.21,0,0,0,.28,1.24,25,25,0,0,0,6.65,7,24,24,0,0,0,13.73,4.38A23.7,23.7,0,0,0,27.68,40a27.22,27.22,0,0,0,7.79-3,24,24,0,0,0,7.17-6,16.79,16.79,0,0,0,2-3.16,15,15,0,0,0,1.21-3.7,3.46,3.46,0,0,0-.13-1.71ZM3.66,23.87a3,3,0,0,1,.62-1.49l0,0a2.93,2.93,0,0,1,2.36-1.27h0a14.13,14.13,0,0,1,3.18.56l1,.25a18.94,18.94,0,0,0,4.43.62A5.34,5.34,0,0,0,17.87,22c.93-.54,1.94-1.85,3.09-4,.23-.42.44-.87.65-1.32.3-.62.57-1.2.89-1.73a13.89,13.89,0,0,1,2.59-3.08,4.71,4.71,0,0,1,3.13-1.29c1.49,0,2.09.31,2.49,1.48a15.18,15.18,0,0,1,.69,2.8,4,4,0,0,0,1.56,3c2.66,1.64,6.37-.57,6.54-.68a6.7,6.7,0,0,1,1-.5,2.22,2.22,0,0,1,1.3-.21c.5.11,1,.71,1.38,1.7a4.13,4.13,0,0,1,.27,1.79,11.36,11.36,0,0,1-.58,2.9c-2.53,6.91-9.08,11.9-17.11,13a19.94,19.94,0,0,1-6.31,0,21.35,21.35,0,0,1-7.66-3A28.64,28.64,0,0,1,4,25.51,2.52,2.52,0,0,1,3.66,23.87Zm41.16.1a14,14,0,0,1-1.13,3.46,15.65,15.65,0,0,1-1.84,3A23,23,0,0,1,35,36.12,26.35,26.35,0,0,1,27.47,39,22.83,22.83,0,0,1,9.64,35.33a24.14,24.14,0,0,1-6.35-6.65A1.18,1.18,0,0,1,3.15,28c0-.39.07-1,.16-1.71a30,30,0,0,0,8,7.44,22.61,22.61,0,0,0,8,3.11,21.61,21.61,0,0,0,3.39.27,20.4,20.4,0,0,0,3.23-.26c8.38-1.19,15.24-6.43,17.9-13.69a12.56,12.56,0,0,0,.46-1.79l.46,1.4A2.37,2.37,0,0,1,44.82,24Z"/><path d="M7.61,24.84A2.15,2.15,0,0,0,8,27a23.76,23.76,0,0,0,5.69,4.12,21,21,0,0,0,9.74,2.52,16.5,16.5,0,0,0,2.64-.2A18.64,18.64,0,0,0,36,28.63a26.23,26.23,0,0,0,3.37-3.72,13.41,13.41,0,0,0,1.43-2.27,4.59,4.59,0,0,0,.17-.48L41,21.9a2.43,2.43,0,0,0-.47-2.48A3,3,0,0,0,37.7,19s-.21,0-.41.08l-.45.11-.92.21a5.67,5.67,0,0,1-1.77.21,4.83,4.83,0,0,1-3.1-.87h0a5.37,5.37,0,0,1-.82-1.44L30,16.79a11,11,0,0,1-.43-1,3.54,3.54,0,0,0-1.36-2.2,2.84,2.84,0,0,0-3.53.67,14.85,14.85,0,0,0-1.43,2.08l-.78,1.29a20.35,20.35,0,0,1-2.68,3.83l-.16.18a1.94,1.94,0,0,1-.27.28l-.14.14A6.72,6.72,0,0,1,16,23.85a11.74,11.74,0,0,1-5.62-.37,2.8,2.8,0,0,0-1,0h0A2.3,2.3,0,0,0,7.61,24.84Zm.93.38a1.35,1.35,0,0,1,1-.77,1.5,1.5,0,0,1,.57,0,12.79,12.79,0,0,0,6.13.37,7.76,7.76,0,0,0,3.71-2.1l.12-.11a5.15,5.15,0,0,0,.37-.38l.09-.11a21.39,21.39,0,0,0,2.82-4l.79-1.3a13,13,0,0,1,1.3-1.9,1.85,1.85,0,0,1,2.27-.51A2.71,2.71,0,0,1,28.64,16a11,11,0,0,0,.46,1.15c.07.16.14.31.2.46a6.74,6.74,0,0,0,1,1.73c.11.11,1.11,1.11,3.82,1.2a6.71,6.71,0,0,0,2-.24l.91-.21.46-.11.36-.07a2.16,2.16,0,0,1,2,.18,1.6,1.6,0,0,1,.21,1.48l-.08.23c0,.13-.08.26-.13.38a13,13,0,0,1-1.37,2.16,24.48,24.48,0,0,1-3.21,3.52,17.6,17.6,0,0,1-9.4,4.53A19.21,19.21,0,0,1,14.13,30.2a22.64,22.64,0,0,1-5.39-3.86A1.16,1.16,0,0,1,8.54,25.22Z"/><path d="M23.1,26.1a2.36,2.36,0,1,0-2.36-2.36A2.37,2.37,0,0,0,23.1,26.1Zm0-3.72a1.36,1.36,0,1,1-1.36,1.36A1.36,1.36,0,0,1,23.1,22.38Z"/><path d="M14.43,29a2.68,2.68,0,0,1,.59-.14,1.84,1.84,0,0,1,.4.25,2.6,2.6,0,0,0,1.56.63h.21c1.14-.11,1.43-1.29,1.52-1.68a1.61,1.61,0,0,0-1-1.9.9.9,0,0,0-.94.18,1,1,0,0,0-1-.83,2.46,2.46,0,0,0-2.41,1l0,0c-.5.78-.92,1.54-.48,2.28C13.2,29.37,13.91,29.15,14.43,29Zm-.28-1.93a1.46,1.46,0,0,1,1.53-.57h.1a1.55,1.55,0,0,1,0,.15.9.9,0,0,0,.55.73,1,1,0,0,0,1-.23l.07-.06a.63.63,0,0,1,.34.72c-.19.77-.42.9-.65.92A1.62,1.62,0,0,1,16,28.29a2.24,2.24,0,0,0-.77-.42l-.24,0a3.07,3.07,0,0,0-.87.18,4.12,4.12,0,0,1-.47.13C13.63,28,13.74,27.7,14.15,27.06Z"/><path d="M21.57,31.9a4,4,0,0,0,1.07.14,1.87,1.87,0,0,0,1.23-.34,1.5,1.5,0,0,0,.41-.6l.06.07a1.23,1.23,0,0,0,1.4.52c.94-.44,1.14-2.22,1.18-3,.07-1.23-.1-2-.44-2.17a1.14,1.14,0,0,0-.86-.27,1.37,1.37,0,0,0-.94.54c-.46.55-.81.8-1,.81a3.65,3.65,0,0,1-.55-.47,2.3,2.3,0,0,0-1.4-.85h0c-.71,0-1.32.85-1.45,2a5.86,5.86,0,0,0,.34,2.78A1.28,1.28,0,0,0,21.57,31.9Zm-.35-3.4v0a1.73,1.73,0,0,1,.45-1.15,2.73,2.73,0,0,1,.72.57,2.15,2.15,0,0,0,1.13.74,2.52,2.52,0,0,0,1.92-1.16c.16-.2.27-.2.38-.15a5.93,5.93,0,0,1-.15,2.8,1.93,1.93,0,0,1-.31.65,1.3,1.3,0,0,1-.27-.26l-.09-.1a1.21,1.21,0,0,0-.87-.54.76.76,0,0,0-.73.68.71.71,0,0,1-.21.4,2.38,2.38,0,0,1-1.68-.15A5.13,5.13,0,0,1,21.22,28.5Z"/><path d="M30.68,26.16a3.42,3.42,0,0,1-.76.51l-.15.09c-1.28.73-1.95,1.19-2.12,1.69a3.18,3.18,0,0,0,.29,2,.81.81,0,0,0,.54.43h.14a2.14,2.14,0,0,0,1.07-.49,2.31,2.31,0,0,1,.49-.28,3.88,3.88,0,0,0,1-.23c.51-.18,3.75-3.15,3.54-4.26A3.84,3.84,0,0,0,32,23a1,1,0,0,0-.72.11,1.72,1.72,0,0,0-.65,1.24,6.07,6.07,0,0,0,0,1.71Zm1-.07,0-.15a5.72,5.72,0,0,1,0-1.43,2.44,2.44,0,0,1,.16-.55,2.9,2.9,0,0,1,2,1.78c-.08.59-2.38,2.94-2.87,3.18a3.35,3.35,0,0,1-.9.2,2.1,2.1,0,0,0-.87.44l-.39.26a2.8,2.8,0,0,1-.15-1,6.34,6.34,0,0,1,1.68-1.16l.14-.08C31.07,27.17,31.76,26.78,31.68,26.09Z"/><path d="M35.48,24.41h.31a4.79,4.79,0,0,0,1.28-.17,4,4,0,0,0,2-1.62.85.85,0,0,0,.12-.56,1,1,0,0,0-.37-.69,2.62,2.62,0,0,0-1.69-.46,3.48,3.48,0,0,0-1.5.68l-.14,0-.16,0L35,21.48c-.37-.11-1-.32-1.27.28h0a2.18,2.18,0,0,0,.3,1.68A1.94,1.94,0,0,0,35.48,24.41Zm-.72-2,.41.1.15,0a1,1,0,0,0,.86-.15,2.59,2.59,0,0,1,1-.5,1.69,1.69,0,0,1,1,.25,3.23,3.23,0,0,1-1.39,1.12,4.17,4.17,0,0,1-1.21.12A.87.87,0,0,1,35,23a1.46,1.46,0,0,1-.22-.53Z"/><path d="M25.41,20c.3.26.79.7.79.93a2.88,2.88,0,0,1-.16.76,2.35,2.35,0,0,0-.07,1.7,1,1,0,0,0,.69.54,2.49,2.49,0,0,0,.5.05,3.63,3.63,0,0,0,2.16-.78c.72-.57,1.44-2.08.92-2.92a1.3,1.3,0,0,0-.93-.65,1,1,0,0,1-.41-.15l-.54-.33A8.18,8.18,0,0,1,28,17.89c-.23-.93-.38-1.54-1-1.51s-.73.62-.89,1.14c-.05.14-.12.37-.17.48h-.25a1.2,1.2,0,0,0-1,.33.71.71,0,0,0-.11.62A2.34,2.34,0,0,0,25.41,20Zm1.21-1.2a1.75,1.75,0,0,0,.39-.7.09.09,0,0,0,0,.05,5.74,5.74,0,0,0,.54,1.6c.06.11.08.14.82.59a2.22,2.22,0,0,0,.71.27c.19,0,.2,0,.3.2a2,2,0,0,1-.69,1.6,2.79,2.79,0,0,1-1.81.59,1.59,1.59,0,0,1,.1-1,3.37,3.37,0,0,0,.21-1h0c0-.69-.59-1.22-1.12-1.69L25.83,19A1.14,1.14,0,0,0,26.62,18.78Z"/><path d="M29.91,33.08a13.28,13.28,0,0,1-7.33,1.18.49.49,0,0,0-.57.42.51.51,0,0,0,.42.57,12.92,12.92,0,0,0,1.83.13A14.06,14.06,0,0,0,30.37,34a.5.5,0,0,0,.21-.68A.51.51,0,0,0,29.91,33.08Z"/><path d="M6.42,26.66a.53.53,0,0,0,.24-.06.51.51,0,0,0,.2-.68,2.46,2.46,0,0,1-.16-1.7A2.32,2.32,0,0,1,8,23a.5.5,0,1,0-.42-.9,3.16,3.16,0,0,0-1.87,1.77A3.39,3.39,0,0,0,6,26.4.51.51,0,0,0,6.42,26.66Z"/><path d="M26.53,12.69a2.61,2.61,0,0,1,2-.2,1.51,1.51,0,0,1,.78.75.5.5,0,0,0,.47.32.47.47,0,0,0,.17,0,.5.5,0,0,0,.29-.65,2.5,2.5,0,0,0-1.3-1.3,3.48,3.48,0,0,0-2.78.19.5.5,0,1,0,.39.92Z"/><path d="M40.74,18.34c1.16.49,1,2.19,1,2.21a.5.5,0,0,0,.44.55h.06a.5.5,0,0,0,.49-.44c0-.1.28-2.47-1.58-3.25a.5.5,0,0,0-.66.27A.51.51,0,0,0,40.74,18.34Z"/></svg>